G04 #@! TF.GenerationSoftware,KiCad,Pcbnew,(5.0.2)-1*
G04 #@! TF.CreationDate,2019-04-12T09:41:04-04:00*
G04 #@! TF.ProjectId,CAT Controller,43415420-436f-46e7-9472-6f6c6c65722e,rev?*
G04 #@! TF.SameCoordinates,Original*
G04 #@! TF.FileFunction,Legend,Top*
G04 #@! TF.FilePolarity,Positive*
%FSLAX46Y46*%
G04 Gerber Fmt 4.6, Leading zero omitted, Abs format (unit mm)*
G04 Created by KiCad (PCBNEW (5.0.2)-1) date 4/12/2019 9:41:04 AM*
%MOMM*%
%LPD*%
G01*
G04 APERTURE LIST*
%ADD10C,0.203200*%
%ADD11C,0.200000*%
%ADD12C,0.120000*%
%ADD13C,0.127000*%
G04 APERTURE END LIST*
D10*
X112318800Y-34420628D02*
X112463942Y-34469009D01*
X112512323Y-34517390D01*
X112560704Y-34614152D01*
X112560704Y-34759295D01*
X112512323Y-34856057D01*
X112463942Y-34904438D01*
X112367180Y-34952819D01*
X111980133Y-34952819D01*
X111980133Y-33936819D01*
X112318800Y-33936819D01*
X112415561Y-33985200D01*
X112463942Y-34033580D01*
X112512323Y-34130342D01*
X112512323Y-34227104D01*
X112463942Y-34323866D01*
X112415561Y-34372247D01*
X112318800Y-34420628D01*
X111980133Y-34420628D01*
X113141276Y-34952819D02*
X113044514Y-34904438D01*
X112996133Y-34856057D01*
X112947752Y-34759295D01*
X112947752Y-34469009D01*
X112996133Y-34372247D01*
X113044514Y-34323866D01*
X113141276Y-34275485D01*
X113286419Y-34275485D01*
X113383180Y-34323866D01*
X113431561Y-34372247D01*
X113479942Y-34469009D01*
X113479942Y-34759295D01*
X113431561Y-34856057D01*
X113383180Y-34904438D01*
X113286419Y-34952819D01*
X113141276Y-34952819D01*
X114350800Y-34275485D02*
X114350800Y-34952819D01*
X113915371Y-34275485D02*
X113915371Y-34807676D01*
X113963752Y-34904438D01*
X114060514Y-34952819D01*
X114205657Y-34952819D01*
X114302419Y-34904438D01*
X114350800Y-34856057D01*
X114834609Y-34952819D02*
X114834609Y-34275485D01*
X114834609Y-34469009D02*
X114882990Y-34372247D01*
X114931371Y-34323866D01*
X115028133Y-34275485D01*
X115124895Y-34275485D01*
X115463561Y-34275485D02*
X115463561Y-34952819D01*
X115463561Y-34372247D02*
X115511942Y-34323866D01*
X115608704Y-34275485D01*
X115753847Y-34275485D01*
X115850609Y-34323866D01*
X115898990Y-34420628D01*
X115898990Y-34952819D01*
X116334419Y-34904438D02*
X116431180Y-34952819D01*
X116624704Y-34952819D01*
X116721466Y-34904438D01*
X116769847Y-34807676D01*
X116769847Y-34759295D01*
X116721466Y-34662533D01*
X116624704Y-34614152D01*
X116479561Y-34614152D01*
X116382800Y-34565771D01*
X116334419Y-34469009D01*
X116334419Y-34420628D01*
X116382800Y-34323866D01*
X116479561Y-34275485D01*
X116624704Y-34275485D01*
X116721466Y-34323866D01*
X108230609Y-36680019D02*
X107746800Y-36680019D01*
X107746800Y-35664019D01*
X108569276Y-36680019D02*
X108569276Y-35664019D01*
X108907942Y-36389733D01*
X109246609Y-35664019D01*
X109246609Y-36680019D01*
X109730419Y-36292971D02*
X110504514Y-36292971D01*
X110988323Y-36680019D02*
X110988323Y-35664019D01*
X111568895Y-36680019D01*
X111568895Y-35664019D01*
X112052704Y-36680019D02*
X112052704Y-35664019D01*
X112439752Y-35664019D01*
X112536514Y-35712400D01*
X112584895Y-35760780D01*
X112633276Y-35857542D01*
X112633276Y-36002685D01*
X112584895Y-36099447D01*
X112536514Y-36147828D01*
X112439752Y-36196209D01*
X112052704Y-36196209D01*
X113068704Y-36292971D02*
X113842800Y-36292971D01*
X114858800Y-36680019D02*
X114278228Y-36680019D01*
X114568514Y-36680019D02*
X114568514Y-35664019D01*
X114471752Y-35809161D01*
X114374990Y-35905923D01*
X114278228Y-35954304D01*
X115487752Y-35664019D02*
X115584514Y-35664019D01*
X115681276Y-35712400D01*
X115729657Y-35760780D01*
X115778038Y-35857542D01*
X115826419Y-36051066D01*
X115826419Y-36292971D01*
X115778038Y-36486495D01*
X115729657Y-36583257D01*
X115681276Y-36631638D01*
X115584514Y-36680019D01*
X115487752Y-36680019D01*
X115390990Y-36631638D01*
X115342609Y-36583257D01*
X115294228Y-36486495D01*
X115245847Y-36292971D01*
X115245847Y-36051066D01*
X115294228Y-35857542D01*
X115342609Y-35760780D01*
X115390990Y-35712400D01*
X115487752Y-35664019D01*
X116455371Y-35664019D02*
X116552133Y-35664019D01*
X116648895Y-35712400D01*
X116697276Y-35760780D01*
X116745657Y-35857542D01*
X116794038Y-36051066D01*
X116794038Y-36292971D01*
X116745657Y-36486495D01*
X116697276Y-36583257D01*
X116648895Y-36631638D01*
X116552133Y-36680019D01*
X116455371Y-36680019D01*
X116358609Y-36631638D01*
X116310228Y-36583257D01*
X116261847Y-36486495D01*
X116213466Y-36292971D01*
X116213466Y-36051066D01*
X116261847Y-35857542D01*
X116310228Y-35760780D01*
X116358609Y-35712400D01*
X116455371Y-35664019D01*
X117761657Y-36680019D02*
X117181085Y-36680019D01*
X117471371Y-36680019D02*
X117471371Y-35664019D01*
X117374609Y-35809161D01*
X117277847Y-35905923D01*
X117181085Y-35954304D01*
X118197085Y-36292971D02*
X118971180Y-36292971D01*
X119793657Y-36147828D02*
X119938800Y-36196209D01*
X119987180Y-36244590D01*
X120035561Y-36341352D01*
X120035561Y-36486495D01*
X119987180Y-36583257D01*
X119938800Y-36631638D01*
X119842038Y-36680019D01*
X119454990Y-36680019D01*
X119454990Y-35664019D01*
X119793657Y-35664019D01*
X119890419Y-35712400D01*
X119938800Y-35760780D01*
X119987180Y-35857542D01*
X119987180Y-35954304D01*
X119938800Y-36051066D01*
X119890419Y-36099447D01*
X119793657Y-36147828D01*
X119454990Y-36147828D01*
X121003180Y-36680019D02*
X120422609Y-36680019D01*
X120712895Y-36680019D02*
X120712895Y-35664019D01*
X120616133Y-35809161D01*
X120519371Y-35905923D01*
X120422609Y-35954304D01*
X91846400Y-34420628D02*
X91991542Y-34469009D01*
X92039923Y-34517390D01*
X92088304Y-34614152D01*
X92088304Y-34759295D01*
X92039923Y-34856057D01*
X91991542Y-34904438D01*
X91894780Y-34952819D01*
X91507733Y-34952819D01*
X91507733Y-33936819D01*
X91846400Y-33936819D01*
X91943161Y-33985200D01*
X91991542Y-34033580D01*
X92039923Y-34130342D01*
X92039923Y-34227104D01*
X91991542Y-34323866D01*
X91943161Y-34372247D01*
X91846400Y-34420628D01*
X91507733Y-34420628D01*
X92668876Y-34952819D02*
X92572114Y-34904438D01*
X92523733Y-34856057D01*
X92475352Y-34759295D01*
X92475352Y-34469009D01*
X92523733Y-34372247D01*
X92572114Y-34323866D01*
X92668876Y-34275485D01*
X92814019Y-34275485D01*
X92910780Y-34323866D01*
X92959161Y-34372247D01*
X93007542Y-34469009D01*
X93007542Y-34759295D01*
X92959161Y-34856057D01*
X92910780Y-34904438D01*
X92814019Y-34952819D01*
X92668876Y-34952819D01*
X93878400Y-34275485D02*
X93878400Y-34952819D01*
X93442971Y-34275485D02*
X93442971Y-34807676D01*
X93491352Y-34904438D01*
X93588114Y-34952819D01*
X93733257Y-34952819D01*
X93830019Y-34904438D01*
X93878400Y-34856057D01*
X94362209Y-34952819D02*
X94362209Y-34275485D01*
X94362209Y-34469009D02*
X94410590Y-34372247D01*
X94458971Y-34323866D01*
X94555733Y-34275485D01*
X94652495Y-34275485D01*
X94991161Y-34275485D02*
X94991161Y-34952819D01*
X94991161Y-34372247D02*
X95039542Y-34323866D01*
X95136304Y-34275485D01*
X95281447Y-34275485D01*
X95378209Y-34323866D01*
X95426590Y-34420628D01*
X95426590Y-34952819D01*
X95862019Y-34904438D02*
X95958780Y-34952819D01*
X96152304Y-34952819D01*
X96249066Y-34904438D01*
X96297447Y-34807676D01*
X96297447Y-34759295D01*
X96249066Y-34662533D01*
X96152304Y-34614152D01*
X96007161Y-34614152D01*
X95910400Y-34565771D01*
X95862019Y-34469009D01*
X95862019Y-34420628D01*
X95910400Y-34323866D01*
X96007161Y-34275485D01*
X96152304Y-34275485D01*
X96249066Y-34323866D01*
X87758209Y-36680019D02*
X87274400Y-36680019D01*
X87274400Y-35664019D01*
X88096876Y-36680019D02*
X88096876Y-35664019D01*
X88435542Y-36389733D01*
X88774209Y-35664019D01*
X88774209Y-36680019D01*
X89258019Y-36292971D02*
X90032114Y-36292971D01*
X90515923Y-36680019D02*
X90515923Y-35664019D01*
X91096495Y-36680019D01*
X91096495Y-35664019D01*
X91580304Y-36680019D02*
X91580304Y-35664019D01*
X91967352Y-35664019D01*
X92064114Y-35712400D01*
X92112495Y-35760780D01*
X92160876Y-35857542D01*
X92160876Y-36002685D01*
X92112495Y-36099447D01*
X92064114Y-36147828D01*
X91967352Y-36196209D01*
X91580304Y-36196209D01*
X92596304Y-36292971D02*
X93370400Y-36292971D01*
X94386400Y-36680019D02*
X93805828Y-36680019D01*
X94096114Y-36680019D02*
X94096114Y-35664019D01*
X93999352Y-35809161D01*
X93902590Y-35905923D01*
X93805828Y-35954304D01*
X95015352Y-35664019D02*
X95112114Y-35664019D01*
X95208876Y-35712400D01*
X95257257Y-35760780D01*
X95305638Y-35857542D01*
X95354019Y-36051066D01*
X95354019Y-36292971D01*
X95305638Y-36486495D01*
X95257257Y-36583257D01*
X95208876Y-36631638D01*
X95112114Y-36680019D01*
X95015352Y-36680019D01*
X94918590Y-36631638D01*
X94870209Y-36583257D01*
X94821828Y-36486495D01*
X94773447Y-36292971D01*
X94773447Y-36051066D01*
X94821828Y-35857542D01*
X94870209Y-35760780D01*
X94918590Y-35712400D01*
X95015352Y-35664019D01*
X95982971Y-35664019D02*
X96079733Y-35664019D01*
X96176495Y-35712400D01*
X96224876Y-35760780D01*
X96273257Y-35857542D01*
X96321638Y-36051066D01*
X96321638Y-36292971D01*
X96273257Y-36486495D01*
X96224876Y-36583257D01*
X96176495Y-36631638D01*
X96079733Y-36680019D01*
X95982971Y-36680019D01*
X95886209Y-36631638D01*
X95837828Y-36583257D01*
X95789447Y-36486495D01*
X95741066Y-36292971D01*
X95741066Y-36051066D01*
X95789447Y-35857542D01*
X95837828Y-35760780D01*
X95886209Y-35712400D01*
X95982971Y-35664019D01*
X97289257Y-36680019D02*
X96708685Y-36680019D01*
X96998971Y-36680019D02*
X96998971Y-35664019D01*
X96902209Y-35809161D01*
X96805447Y-35905923D01*
X96708685Y-35954304D01*
X97724685Y-36292971D02*
X98498780Y-36292971D01*
X99321257Y-36147828D02*
X99466400Y-36196209D01*
X99514780Y-36244590D01*
X99563161Y-36341352D01*
X99563161Y-36486495D01*
X99514780Y-36583257D01*
X99466400Y-36631638D01*
X99369638Y-36680019D01*
X98982590Y-36680019D01*
X98982590Y-35664019D01*
X99321257Y-35664019D01*
X99418019Y-35712400D01*
X99466400Y-35760780D01*
X99514780Y-35857542D01*
X99514780Y-35954304D01*
X99466400Y-36051066D01*
X99418019Y-36099447D01*
X99321257Y-36147828D01*
X98982590Y-36147828D01*
X100530780Y-36680019D02*
X99950209Y-36680019D01*
X100240495Y-36680019D02*
X100240495Y-35664019D01*
X100143733Y-35809161D01*
X100046971Y-35905923D01*
X99950209Y-35954304D01*
X71132095Y-55577619D02*
X70793428Y-55093809D01*
X70551523Y-55577619D02*
X70551523Y-54561619D01*
X70938571Y-54561619D01*
X71035333Y-54610000D01*
X71083714Y-54658380D01*
X71132095Y-54755142D01*
X71132095Y-54900285D01*
X71083714Y-54997047D01*
X71035333Y-55045428D01*
X70938571Y-55093809D01*
X70551523Y-55093809D01*
X71470761Y-54561619D02*
X72148095Y-55577619D01*
X72148095Y-54561619D02*
X71470761Y-55577619D01*
X73841428Y-54610000D02*
X73744666Y-54561619D01*
X73599523Y-54561619D01*
X73454380Y-54610000D01*
X73357619Y-54706761D01*
X73309238Y-54803523D01*
X73260857Y-54997047D01*
X73260857Y-55142190D01*
X73309238Y-55335714D01*
X73357619Y-55432476D01*
X73454380Y-55529238D01*
X73599523Y-55577619D01*
X73696285Y-55577619D01*
X73841428Y-55529238D01*
X73889809Y-55480857D01*
X73889809Y-55142190D01*
X73696285Y-55142190D01*
X74276857Y-55287333D02*
X74760666Y-55287333D01*
X74180095Y-55577619D02*
X74518761Y-54561619D01*
X74857428Y-55577619D01*
X75196095Y-55577619D02*
X75196095Y-54561619D01*
X75679904Y-55577619D02*
X75679904Y-54561619D01*
X76260476Y-55577619D01*
X76260476Y-54561619D01*
X70527333Y-41810819D02*
X71107904Y-41810819D01*
X70817619Y-42826819D02*
X70817619Y-41810819D01*
X71349809Y-41810819D02*
X72027142Y-42826819D01*
X72027142Y-41810819D02*
X71349809Y-42826819D01*
X73720476Y-41859200D02*
X73623714Y-41810819D01*
X73478571Y-41810819D01*
X73333428Y-41859200D01*
X73236666Y-41955961D01*
X73188285Y-42052723D01*
X73139904Y-42246247D01*
X73139904Y-42391390D01*
X73188285Y-42584914D01*
X73236666Y-42681676D01*
X73333428Y-42778438D01*
X73478571Y-42826819D01*
X73575333Y-42826819D01*
X73720476Y-42778438D01*
X73768857Y-42730057D01*
X73768857Y-42391390D01*
X73575333Y-42391390D01*
X74155904Y-42536533D02*
X74639714Y-42536533D01*
X74059142Y-42826819D02*
X74397809Y-41810819D01*
X74736476Y-42826819D01*
X75075142Y-42826819D02*
X75075142Y-41810819D01*
X75558952Y-42826819D02*
X75558952Y-41810819D01*
X76139523Y-42826819D01*
X76139523Y-41810819D01*
D11*
X62280800Y-40513000D02*
X62280800Y-63627000D01*
D10*
X66400438Y-44892685D02*
X66448819Y-44747542D01*
X66448819Y-44505638D01*
X66400438Y-44408876D01*
X66352057Y-44360495D01*
X66255295Y-44312114D01*
X66158533Y-44312114D01*
X66061771Y-44360495D01*
X66013390Y-44408876D01*
X65965009Y-44505638D01*
X65916628Y-44699161D01*
X65868247Y-44795923D01*
X65819866Y-44844304D01*
X65723104Y-44892685D01*
X65626342Y-44892685D01*
X65529580Y-44844304D01*
X65481200Y-44795923D01*
X65432819Y-44699161D01*
X65432819Y-44457257D01*
X65481200Y-44312114D01*
X66448819Y-43876685D02*
X65432819Y-43876685D01*
X65432819Y-43489638D01*
X65481200Y-43392876D01*
X65529580Y-43344495D01*
X65626342Y-43296114D01*
X65771485Y-43296114D01*
X65868247Y-43344495D01*
X65916628Y-43392876D01*
X65965009Y-43489638D01*
X65965009Y-43876685D01*
X66448819Y-42860685D02*
X65432819Y-42860685D01*
X66448819Y-42280114D02*
X65868247Y-42715542D01*
X65432819Y-42280114D02*
X66013390Y-42860685D01*
X66448819Y-41264114D02*
X65965009Y-41602780D01*
X66448819Y-41844685D02*
X65432819Y-41844685D01*
X65432819Y-41457638D01*
X65481200Y-41360876D01*
X65529580Y-41312495D01*
X65626342Y-41264114D01*
X65771485Y-41264114D01*
X65868247Y-41312495D01*
X65916628Y-41360876D01*
X65965009Y-41457638D01*
X65965009Y-41844685D01*
X66398019Y-50720171D02*
X65382019Y-50720171D01*
X66107733Y-50381504D01*
X65382019Y-50042838D01*
X66398019Y-50042838D01*
X66398019Y-49559028D02*
X65382019Y-49559028D01*
X66301257Y-48494647D02*
X66349638Y-48543028D01*
X66398019Y-48688171D01*
X66398019Y-48784933D01*
X66349638Y-48930076D01*
X66252876Y-49026838D01*
X66156114Y-49075219D01*
X65962590Y-49123600D01*
X65817447Y-49123600D01*
X65623923Y-49075219D01*
X65527161Y-49026838D01*
X65430400Y-48930076D01*
X65382019Y-48784933D01*
X65382019Y-48688171D01*
X65430400Y-48543028D01*
X65478780Y-48494647D01*
X66349638Y-57643485D02*
X66398019Y-57498342D01*
X66398019Y-57256438D01*
X66349638Y-57159676D01*
X66301257Y-57111295D01*
X66204495Y-57062914D01*
X66107733Y-57062914D01*
X66010971Y-57111295D01*
X65962590Y-57159676D01*
X65914209Y-57256438D01*
X65865828Y-57449961D01*
X65817447Y-57546723D01*
X65769066Y-57595104D01*
X65672304Y-57643485D01*
X65575542Y-57643485D01*
X65478780Y-57595104D01*
X65430400Y-57546723D01*
X65382019Y-57449961D01*
X65382019Y-57208057D01*
X65430400Y-57062914D01*
X66398019Y-56627485D02*
X65382019Y-56627485D01*
X65382019Y-56240438D01*
X65430400Y-56143676D01*
X65478780Y-56095295D01*
X65575542Y-56046914D01*
X65720685Y-56046914D01*
X65817447Y-56095295D01*
X65865828Y-56143676D01*
X65914209Y-56240438D01*
X65914209Y-56627485D01*
X66398019Y-55611485D02*
X65382019Y-55611485D01*
X66398019Y-55030914D02*
X65817447Y-55466342D01*
X65382019Y-55030914D02*
X65962590Y-55611485D01*
X66398019Y-54014914D02*
X65914209Y-54353580D01*
X66398019Y-54595485D02*
X65382019Y-54595485D01*
X65382019Y-54208438D01*
X65430400Y-54111676D01*
X65478780Y-54063295D01*
X65575542Y-54014914D01*
X65720685Y-54014914D01*
X65817447Y-54063295D01*
X65865828Y-54111676D01*
X65914209Y-54208438D01*
X65914209Y-54595485D01*
X66398019Y-62048571D02*
X65382019Y-62048571D01*
X66107733Y-61709904D01*
X65382019Y-61371238D01*
X66398019Y-61371238D01*
X66398019Y-60887428D02*
X65382019Y-60887428D01*
X66301257Y-59823047D02*
X66349638Y-59871428D01*
X66398019Y-60016571D01*
X66398019Y-60113333D01*
X66349638Y-60258476D01*
X66252876Y-60355238D01*
X66156114Y-60403619D01*
X65962590Y-60452000D01*
X65817447Y-60452000D01*
X65623923Y-60403619D01*
X65527161Y-60355238D01*
X65430400Y-60258476D01*
X65382019Y-60113333D01*
X65382019Y-60016571D01*
X65430400Y-59871428D01*
X65478780Y-59823047D01*
D11*
X57023000Y-58547000D02*
X67360800Y-58521600D01*
X56896000Y-53340000D02*
X67411600Y-53340000D01*
X57023000Y-45720000D02*
X67360800Y-45720000D01*
X67360800Y-63550800D02*
X56896000Y-63601600D01*
X67360800Y-40436800D02*
X67360800Y-63550800D01*
X56896000Y-40513000D02*
X67310000Y-40487600D01*
D12*
G04 #@! TO.C,R1*
X97678000Y-72802000D02*
X97678000Y-70962000D01*
X97678000Y-70962000D02*
X93838000Y-70962000D01*
X93838000Y-70962000D02*
X93838000Y-72802000D01*
X93838000Y-72802000D02*
X97678000Y-72802000D01*
X98628000Y-71882000D02*
X97678000Y-71882000D01*
X92888000Y-71882000D02*
X93838000Y-71882000D01*
G04 #@! TO.C,C2*
X71176000Y-61175000D02*
X71176000Y-61160000D01*
X71176000Y-63300000D02*
X71176000Y-63285000D01*
X75716000Y-61175000D02*
X75716000Y-61160000D01*
X75716000Y-63300000D02*
X75716000Y-63285000D01*
X75716000Y-61160000D02*
X71176000Y-61160000D01*
X75716000Y-63300000D02*
X71176000Y-63300000D01*
G04 #@! TO.C,C1*
X75636000Y-50585000D02*
X75636000Y-50600000D01*
X75636000Y-48460000D02*
X75636000Y-48475000D01*
X71096000Y-50585000D02*
X71096000Y-50600000D01*
X71096000Y-48460000D02*
X71096000Y-48475000D01*
X71096000Y-50600000D02*
X75636000Y-50600000D01*
X71096000Y-48460000D02*
X75636000Y-48460000D01*
G04 #@! TO.C,J1*
X62230000Y-45720000D02*
X60960000Y-45720000D01*
X62230000Y-44450000D02*
X62230000Y-45720000D01*
X59917071Y-41530000D02*
X59520000Y-41530000D01*
X59917071Y-42290000D02*
X59520000Y-42290000D01*
X50860000Y-41530000D02*
X56860000Y-41530000D01*
X50860000Y-42290000D02*
X50860000Y-41530000D01*
X56860000Y-42290000D02*
X50860000Y-42290000D01*
X59520000Y-43180000D02*
X56860000Y-43180000D01*
X59850000Y-44070000D02*
X59520000Y-44070000D01*
X59850000Y-44830000D02*
X59520000Y-44830000D01*
X56860000Y-44170000D02*
X50860000Y-44170000D01*
X56860000Y-44290000D02*
X50860000Y-44290000D01*
X56860000Y-44410000D02*
X50860000Y-44410000D01*
X56860000Y-44530000D02*
X50860000Y-44530000D01*
X56860000Y-44650000D02*
X50860000Y-44650000D01*
X56860000Y-44770000D02*
X50860000Y-44770000D01*
X50860000Y-44070000D02*
X56860000Y-44070000D01*
X50860000Y-44830000D02*
X50860000Y-44070000D01*
X56860000Y-44830000D02*
X50860000Y-44830000D01*
X56860000Y-45780000D02*
X59520000Y-45780000D01*
X56860000Y-40580000D02*
X56860000Y-45780000D01*
X59520000Y-40580000D02*
X56860000Y-40580000D01*
X59520000Y-45780000D02*
X59520000Y-40580000D01*
D13*
G04 #@! TO.C,U1*
X132080000Y-50800000D02*
X132080000Y-68580000D01*
X88900000Y-50800000D02*
X132080000Y-50800000D01*
X88900000Y-68580000D02*
X88900000Y-50800000D01*
X132080000Y-68580000D02*
X88900000Y-68580000D01*
D12*
G04 #@! TO.C,J4*
X62230000Y-58420000D02*
X60960000Y-58420000D01*
X62230000Y-57150000D02*
X62230000Y-58420000D01*
X59917071Y-54230000D02*
X59520000Y-54230000D01*
X59917071Y-54990000D02*
X59520000Y-54990000D01*
X50860000Y-54230000D02*
X56860000Y-54230000D01*
X50860000Y-54990000D02*
X50860000Y-54230000D01*
X56860000Y-54990000D02*
X50860000Y-54990000D01*
X59520000Y-55880000D02*
X56860000Y-55880000D01*
X59850000Y-56770000D02*
X59520000Y-56770000D01*
X59850000Y-57530000D02*
X59520000Y-57530000D01*
X56860000Y-56870000D02*
X50860000Y-56870000D01*
X56860000Y-56990000D02*
X50860000Y-56990000D01*
X56860000Y-57110000D02*
X50860000Y-57110000D01*
X56860000Y-57230000D02*
X50860000Y-57230000D01*
X56860000Y-57350000D02*
X50860000Y-57350000D01*
X56860000Y-57470000D02*
X50860000Y-57470000D01*
X50860000Y-56770000D02*
X56860000Y-56770000D01*
X50860000Y-57530000D02*
X50860000Y-56770000D01*
X56860000Y-57530000D02*
X50860000Y-57530000D01*
X56860000Y-58480000D02*
X59520000Y-58480000D01*
X56860000Y-53280000D02*
X56860000Y-58480000D01*
X59520000Y-53280000D02*
X56860000Y-53280000D01*
X59520000Y-58480000D02*
X59520000Y-53280000D01*
G04 #@! TO.C,J2*
X62230000Y-63500000D02*
X60960000Y-63500000D01*
X62230000Y-62230000D02*
X62230000Y-63500000D01*
X59917071Y-59310000D02*
X59520000Y-59310000D01*
X59917071Y-60070000D02*
X59520000Y-60070000D01*
X50860000Y-59310000D02*
X56860000Y-59310000D01*
X50860000Y-60070000D02*
X50860000Y-59310000D01*
X56860000Y-60070000D02*
X50860000Y-60070000D01*
X59520000Y-60960000D02*
X56860000Y-60960000D01*
X59850000Y-61850000D02*
X59520000Y-61850000D01*
X59850000Y-62610000D02*
X59520000Y-62610000D01*
X56860000Y-61950000D02*
X50860000Y-61950000D01*
X56860000Y-62070000D02*
X50860000Y-62070000D01*
X56860000Y-62190000D02*
X50860000Y-62190000D01*
X56860000Y-62310000D02*
X50860000Y-62310000D01*
X56860000Y-62430000D02*
X50860000Y-62430000D01*
X56860000Y-62550000D02*
X50860000Y-62550000D01*
X50860000Y-61850000D02*
X56860000Y-61850000D01*
X50860000Y-62610000D02*
X50860000Y-61850000D01*
X56860000Y-62610000D02*
X50860000Y-62610000D01*
X56860000Y-63560000D02*
X59520000Y-63560000D01*
X56860000Y-58360000D02*
X56860000Y-63560000D01*
X59520000Y-58360000D02*
X56860000Y-58360000D01*
X59520000Y-63560000D02*
X59520000Y-58360000D01*
G04 #@! TO.C,J3*
X59520000Y-53400000D02*
X59520000Y-45660000D01*
X59520000Y-45660000D02*
X56860000Y-45660000D01*
X56860000Y-45660000D02*
X56860000Y-53400000D01*
X56860000Y-53400000D02*
X59520000Y-53400000D01*
X56860000Y-52450000D02*
X50860000Y-52450000D01*
X50860000Y-52450000D02*
X50860000Y-51690000D01*
X50860000Y-51690000D02*
X56860000Y-51690000D01*
X56860000Y-52390000D02*
X50860000Y-52390000D01*
X56860000Y-52270000D02*
X50860000Y-52270000D01*
X56860000Y-52150000D02*
X50860000Y-52150000D01*
X56860000Y-52030000D02*
X50860000Y-52030000D01*
X56860000Y-51910000D02*
X50860000Y-51910000D01*
X56860000Y-51790000D02*
X50860000Y-51790000D01*
X59850000Y-52450000D02*
X59520000Y-52450000D01*
X59850000Y-51690000D02*
X59520000Y-51690000D01*
X59520000Y-50800000D02*
X56860000Y-50800000D01*
X56860000Y-49910000D02*
X50860000Y-49910000D01*
X50860000Y-49910000D02*
X50860000Y-49150000D01*
X50860000Y-49150000D02*
X56860000Y-49150000D01*
X59917071Y-49910000D02*
X59520000Y-49910000D01*
X59917071Y-49150000D02*
X59520000Y-49150000D01*
X59520000Y-48260000D02*
X56860000Y-48260000D01*
X56860000Y-47370000D02*
X50860000Y-47370000D01*
X50860000Y-47370000D02*
X50860000Y-46610000D01*
X50860000Y-46610000D02*
X56860000Y-46610000D01*
X59917071Y-47370000D02*
X59520000Y-47370000D01*
X59917071Y-46610000D02*
X59520000Y-46610000D01*
X62230000Y-52070000D02*
X62230000Y-53340000D01*
X62230000Y-53340000D02*
X60960000Y-53340000D01*
G04 #@! TO.C,RV2*
X77276000Y-56328000D02*
X77276000Y-57658000D01*
X75946000Y-56328000D02*
X77276000Y-56328000D01*
X74676000Y-56328000D02*
X74676000Y-58988000D01*
X74676000Y-58988000D02*
X69536000Y-58988000D01*
X74676000Y-56328000D02*
X69536000Y-56328000D01*
X69536000Y-56328000D02*
X69536000Y-58988000D01*
G04 #@! TO.C,RV1*
X69536000Y-43628000D02*
X69536000Y-46288000D01*
X74676000Y-43628000D02*
X69536000Y-43628000D01*
X74676000Y-46288000D02*
X69536000Y-46288000D01*
X74676000Y-43628000D02*
X74676000Y-46288000D01*
X75946000Y-43628000D02*
X77276000Y-43628000D01*
X77276000Y-43628000D02*
X77276000Y-44958000D01*
D13*
G04 #@! TO.C,TR2*
X122993496Y-47047324D02*
X105213496Y-47047324D01*
X122993496Y-29267324D02*
X122993496Y-47047324D01*
X105213496Y-29267324D02*
X122993496Y-29267324D01*
X105213496Y-47047324D02*
X105213496Y-29267324D01*
G04 #@! TO.C,TR1*
X84893496Y-47047324D02*
X84893496Y-29267324D01*
X84893496Y-29267324D02*
X102673496Y-29267324D01*
X102673496Y-29267324D02*
X102673496Y-47047324D01*
X102673496Y-47047324D02*
X84893496Y-47047324D01*
D12*
G04 #@! TO.C,U2*
X80959000Y-72120000D02*
G75*
G02X80959000Y-70120000I0J1000000D01*
G01*
X80959000Y-70120000D02*
X80959000Y-68470000D01*
X80959000Y-68470000D02*
X73219000Y-68470000D01*
X73219000Y-68470000D02*
X73219000Y-73770000D01*
X73219000Y-73770000D02*
X80959000Y-73770000D01*
X80959000Y-73770000D02*
X80959000Y-72120000D01*
D13*
X82824609Y-67056000D02*
G75*
G03X82824609Y-67056000I-401609J0D01*
G01*
G04 #@! TO.C,R1*
D10*
X95588666Y-74261619D02*
X95250000Y-73777809D01*
X95008095Y-74261619D02*
X95008095Y-73245619D01*
X95395142Y-73245619D01*
X95491904Y-73294000D01*
X95540285Y-73342380D01*
X95588666Y-73439142D01*
X95588666Y-73584285D01*
X95540285Y-73681047D01*
X95491904Y-73729428D01*
X95395142Y-73777809D01*
X95008095Y-73777809D01*
X96556285Y-74261619D02*
X95975714Y-74261619D01*
X96266000Y-74261619D02*
X96266000Y-73245619D01*
X96169238Y-73390761D01*
X96072476Y-73487523D01*
X95975714Y-73535904D01*
X95080666Y-70421619D02*
X94500095Y-70421619D01*
X94790380Y-70421619D02*
X94790380Y-69405619D01*
X94693619Y-69550761D01*
X94596857Y-69647523D01*
X94500095Y-69695904D01*
X95999904Y-69405619D02*
X95516095Y-69405619D01*
X95467714Y-69889428D01*
X95516095Y-69841047D01*
X95612857Y-69792666D01*
X95854761Y-69792666D01*
X95951523Y-69841047D01*
X95999904Y-69889428D01*
X96048285Y-69986190D01*
X96048285Y-70228095D01*
X95999904Y-70324857D01*
X95951523Y-70373238D01*
X95854761Y-70421619D01*
X95612857Y-70421619D01*
X95516095Y-70373238D01*
X95467714Y-70324857D01*
X96677238Y-69405619D02*
X96774000Y-69405619D01*
X96870761Y-69454000D01*
X96919142Y-69502380D01*
X96967523Y-69599142D01*
X97015904Y-69792666D01*
X97015904Y-70034571D01*
X96967523Y-70228095D01*
X96919142Y-70324857D01*
X96870761Y-70373238D01*
X96774000Y-70421619D01*
X96677238Y-70421619D01*
X96580476Y-70373238D01*
X96532095Y-70324857D01*
X96483714Y-70228095D01*
X96435333Y-70034571D01*
X96435333Y-69792666D01*
X96483714Y-69599142D01*
X96532095Y-69502380D01*
X96580476Y-69454000D01*
X96677238Y-69405619D01*
G04 #@! TO.C,C2*
X73236666Y-62592857D02*
X73188285Y-62641238D01*
X73043142Y-62689619D01*
X72946380Y-62689619D01*
X72801238Y-62641238D01*
X72704476Y-62544476D01*
X72656095Y-62447714D01*
X72607714Y-62254190D01*
X72607714Y-62109047D01*
X72656095Y-61915523D01*
X72704476Y-61818761D01*
X72801238Y-61722000D01*
X72946380Y-61673619D01*
X73043142Y-61673619D01*
X73188285Y-61722000D01*
X73236666Y-61770380D01*
X73623714Y-61770380D02*
X73672095Y-61722000D01*
X73768857Y-61673619D01*
X74010761Y-61673619D01*
X74107523Y-61722000D01*
X74155904Y-61770380D01*
X74204285Y-61867142D01*
X74204285Y-61963904D01*
X74155904Y-62109047D01*
X73575333Y-62689619D01*
X74204285Y-62689619D01*
X77907847Y-61673619D02*
X78004609Y-61673619D01*
X78101371Y-61722000D01*
X78149752Y-61770380D01*
X78198133Y-61867142D01*
X78246514Y-62060666D01*
X78246514Y-62302571D01*
X78198133Y-62496095D01*
X78149752Y-62592857D01*
X78101371Y-62641238D01*
X78004609Y-62689619D01*
X77907847Y-62689619D01*
X77811085Y-62641238D01*
X77762704Y-62592857D01*
X77714323Y-62496095D01*
X77665942Y-62302571D01*
X77665942Y-62060666D01*
X77714323Y-61867142D01*
X77762704Y-61770380D01*
X77811085Y-61722000D01*
X77907847Y-61673619D01*
X78681942Y-62592857D02*
X78730323Y-62641238D01*
X78681942Y-62689619D01*
X78633561Y-62641238D01*
X78681942Y-62592857D01*
X78681942Y-62689619D01*
X79117371Y-61770380D02*
X79165752Y-61722000D01*
X79262514Y-61673619D01*
X79504419Y-61673619D01*
X79601180Y-61722000D01*
X79649561Y-61770380D01*
X79697942Y-61867142D01*
X79697942Y-61963904D01*
X79649561Y-62109047D01*
X79068990Y-62689619D01*
X79697942Y-62689619D01*
X80084990Y-61770380D02*
X80133371Y-61722000D01*
X80230133Y-61673619D01*
X80472038Y-61673619D01*
X80568800Y-61722000D01*
X80617180Y-61770380D01*
X80665561Y-61867142D01*
X80665561Y-61963904D01*
X80617180Y-62109047D01*
X80036609Y-62689619D01*
X80665561Y-62689619D01*
X81536419Y-62012285D02*
X81536419Y-62689619D01*
X81100990Y-62012285D02*
X81100990Y-62544476D01*
X81149371Y-62641238D01*
X81246133Y-62689619D01*
X81391276Y-62689619D01*
X81488038Y-62641238D01*
X81536419Y-62592857D01*
X82358895Y-62157428D02*
X82020228Y-62157428D01*
X82020228Y-62689619D02*
X82020228Y-61673619D01*
X82504038Y-61673619D01*
G04 #@! TO.C,C1*
X73389066Y-49842057D02*
X73340685Y-49890438D01*
X73195542Y-49938819D01*
X73098780Y-49938819D01*
X72953638Y-49890438D01*
X72856876Y-49793676D01*
X72808495Y-49696914D01*
X72760114Y-49503390D01*
X72760114Y-49358247D01*
X72808495Y-49164723D01*
X72856876Y-49067961D01*
X72953638Y-48971200D01*
X73098780Y-48922819D01*
X73195542Y-48922819D01*
X73340685Y-48971200D01*
X73389066Y-49019580D01*
X74356685Y-49938819D02*
X73776114Y-49938819D01*
X74066400Y-49938819D02*
X74066400Y-48922819D01*
X73969638Y-49067961D01*
X73872876Y-49164723D01*
X73776114Y-49213104D01*
X77907847Y-48922819D02*
X78004609Y-48922819D01*
X78101371Y-48971200D01*
X78149752Y-49019580D01*
X78198133Y-49116342D01*
X78246514Y-49309866D01*
X78246514Y-49551771D01*
X78198133Y-49745295D01*
X78149752Y-49842057D01*
X78101371Y-49890438D01*
X78004609Y-49938819D01*
X77907847Y-49938819D01*
X77811085Y-49890438D01*
X77762704Y-49842057D01*
X77714323Y-49745295D01*
X77665942Y-49551771D01*
X77665942Y-49309866D01*
X77714323Y-49116342D01*
X77762704Y-49019580D01*
X77811085Y-48971200D01*
X77907847Y-48922819D01*
X78681942Y-49842057D02*
X78730323Y-49890438D01*
X78681942Y-49938819D01*
X78633561Y-49890438D01*
X78681942Y-49842057D01*
X78681942Y-49938819D01*
X79117371Y-49019580D02*
X79165752Y-48971200D01*
X79262514Y-48922819D01*
X79504419Y-48922819D01*
X79601180Y-48971200D01*
X79649561Y-49019580D01*
X79697942Y-49116342D01*
X79697942Y-49213104D01*
X79649561Y-49358247D01*
X79068990Y-49938819D01*
X79697942Y-49938819D01*
X80084990Y-49019580D02*
X80133371Y-48971200D01*
X80230133Y-48922819D01*
X80472038Y-48922819D01*
X80568800Y-48971200D01*
X80617180Y-49019580D01*
X80665561Y-49116342D01*
X80665561Y-49213104D01*
X80617180Y-49358247D01*
X80036609Y-49938819D01*
X80665561Y-49938819D01*
X81536419Y-49261485D02*
X81536419Y-49938819D01*
X81100990Y-49261485D02*
X81100990Y-49793676D01*
X81149371Y-49890438D01*
X81246133Y-49938819D01*
X81391276Y-49938819D01*
X81488038Y-49890438D01*
X81536419Y-49842057D01*
X82358895Y-49406628D02*
X82020228Y-49406628D01*
X82020228Y-49938819D02*
X82020228Y-48922819D01*
X82504038Y-48922819D01*
G04 #@! TO.C,J1*
X57812819Y-43467866D02*
X58538533Y-43467866D01*
X58683676Y-43516247D01*
X58780438Y-43613009D01*
X58828819Y-43758152D01*
X58828819Y-43854914D01*
X58828819Y-42451866D02*
X58828819Y-43032438D01*
X58828819Y-42742152D02*
X57812819Y-42742152D01*
X57957961Y-42838914D01*
X58054723Y-42935676D01*
X58103104Y-43032438D01*
X64416819Y-45405523D02*
X63400819Y-45405523D01*
X63400819Y-45018476D01*
X63449200Y-44921714D01*
X63497580Y-44873333D01*
X63594342Y-44824952D01*
X63739485Y-44824952D01*
X63836247Y-44873333D01*
X63884628Y-44921714D01*
X63933009Y-45018476D01*
X63933009Y-45405523D01*
X64320057Y-43808952D02*
X64368438Y-43857333D01*
X64416819Y-44002476D01*
X64416819Y-44099238D01*
X64368438Y-44244380D01*
X64271676Y-44341142D01*
X64174914Y-44389523D01*
X63981390Y-44437904D01*
X63836247Y-44437904D01*
X63642723Y-44389523D01*
X63545961Y-44341142D01*
X63449200Y-44244380D01*
X63400819Y-44099238D01*
X63400819Y-44002476D01*
X63449200Y-43857333D01*
X63497580Y-43808952D01*
X63400819Y-43180000D02*
X63400819Y-42986476D01*
X63449200Y-42889714D01*
X63545961Y-42792952D01*
X63739485Y-42744571D01*
X64078152Y-42744571D01*
X64271676Y-42792952D01*
X64368438Y-42889714D01*
X64416819Y-42986476D01*
X64416819Y-43180000D01*
X64368438Y-43276761D01*
X64271676Y-43373523D01*
X64078152Y-43421904D01*
X63739485Y-43421904D01*
X63545961Y-43373523D01*
X63449200Y-43276761D01*
X63400819Y-43180000D01*
X63400819Y-42309142D02*
X64223295Y-42309142D01*
X64320057Y-42260761D01*
X64368438Y-42212380D01*
X64416819Y-42115619D01*
X64416819Y-41922095D01*
X64368438Y-41825333D01*
X64320057Y-41776952D01*
X64223295Y-41728571D01*
X63400819Y-41728571D01*
X63400819Y-41389904D02*
X63400819Y-40809333D01*
X64416819Y-41099619D02*
X63400819Y-41099619D01*
G04 #@! TO.C,U1*
X104229504Y-59032019D02*
X104229504Y-59854495D01*
X104277885Y-59951257D01*
X104326266Y-59999638D01*
X104423028Y-60048019D01*
X104616552Y-60048019D01*
X104713314Y-59999638D01*
X104761695Y-59951257D01*
X104810076Y-59854495D01*
X104810076Y-59032019D01*
X105826076Y-60048019D02*
X105245504Y-60048019D01*
X105535790Y-60048019D02*
X105535790Y-59032019D01*
X105439028Y-59177161D01*
X105342266Y-59273923D01*
X105245504Y-59322304D01*
X109720742Y-59757733D02*
X110204552Y-59757733D01*
X109623980Y-60048019D02*
X109962647Y-59032019D01*
X110301314Y-60048019D01*
X110639980Y-60048019D02*
X110639980Y-59370685D01*
X110639980Y-59564209D02*
X110688361Y-59467447D01*
X110736742Y-59419066D01*
X110833504Y-59370685D01*
X110930266Y-59370685D01*
X111704361Y-60048019D02*
X111704361Y-59032019D01*
X111704361Y-59999638D02*
X111607600Y-60048019D01*
X111414076Y-60048019D01*
X111317314Y-59999638D01*
X111268933Y-59951257D01*
X111220552Y-59854495D01*
X111220552Y-59564209D01*
X111268933Y-59467447D01*
X111317314Y-59419066D01*
X111414076Y-59370685D01*
X111607600Y-59370685D01*
X111704361Y-59419066D01*
X112623600Y-59370685D02*
X112623600Y-60048019D01*
X112188171Y-59370685D02*
X112188171Y-59902876D01*
X112236552Y-59999638D01*
X112333314Y-60048019D01*
X112478457Y-60048019D01*
X112575219Y-59999638D01*
X112623600Y-59951257D01*
X113107409Y-60048019D02*
X113107409Y-59370685D01*
X113107409Y-59032019D02*
X113059028Y-59080400D01*
X113107409Y-59128780D01*
X113155790Y-59080400D01*
X113107409Y-59032019D01*
X113107409Y-59128780D01*
X113591219Y-59370685D02*
X113591219Y-60048019D01*
X113591219Y-59467447D02*
X113639600Y-59419066D01*
X113736361Y-59370685D01*
X113881504Y-59370685D01*
X113978266Y-59419066D01*
X114026647Y-59515828D01*
X114026647Y-60048019D01*
X114655600Y-60048019D02*
X114558838Y-59999638D01*
X114510457Y-59951257D01*
X114462076Y-59854495D01*
X114462076Y-59564209D01*
X114510457Y-59467447D01*
X114558838Y-59419066D01*
X114655600Y-59370685D01*
X114800742Y-59370685D01*
X114897504Y-59419066D01*
X114945885Y-59467447D01*
X114994266Y-59564209D01*
X114994266Y-59854495D01*
X114945885Y-59951257D01*
X114897504Y-59999638D01*
X114800742Y-60048019D01*
X114655600Y-60048019D01*
X115187790Y-60144780D02*
X115961885Y-60144780D01*
X116203790Y-60048019D02*
X116203790Y-59032019D01*
X116784361Y-60048019D01*
X116784361Y-59032019D01*
X117703600Y-60048019D02*
X117703600Y-59515828D01*
X117655219Y-59419066D01*
X117558457Y-59370685D01*
X117364933Y-59370685D01*
X117268171Y-59419066D01*
X117703600Y-59999638D02*
X117606838Y-60048019D01*
X117364933Y-60048019D01*
X117268171Y-59999638D01*
X117219790Y-59902876D01*
X117219790Y-59806114D01*
X117268171Y-59709352D01*
X117364933Y-59660971D01*
X117606838Y-59660971D01*
X117703600Y-59612590D01*
X118187409Y-59370685D02*
X118187409Y-60048019D01*
X118187409Y-59467447D02*
X118235790Y-59419066D01*
X118332552Y-59370685D01*
X118477695Y-59370685D01*
X118574457Y-59419066D01*
X118622838Y-59515828D01*
X118622838Y-60048019D01*
X119251790Y-60048019D02*
X119155028Y-59999638D01*
X119106647Y-59951257D01*
X119058266Y-59854495D01*
X119058266Y-59564209D01*
X119106647Y-59467447D01*
X119155028Y-59419066D01*
X119251790Y-59370685D01*
X119396933Y-59370685D01*
X119493695Y-59419066D01*
X119542076Y-59467447D01*
X119590457Y-59564209D01*
X119590457Y-59854495D01*
X119542076Y-59951257D01*
X119493695Y-59999638D01*
X119396933Y-60048019D01*
X119251790Y-60048019D01*
G04 #@! TO.C,J4*
X57812819Y-56117066D02*
X58538533Y-56117066D01*
X58683676Y-56165447D01*
X58780438Y-56262209D01*
X58828819Y-56407352D01*
X58828819Y-56504114D01*
X58151485Y-55197828D02*
X58828819Y-55197828D01*
X57764438Y-55439733D02*
X58490152Y-55681638D01*
X58490152Y-55052685D01*
X64416819Y-57016952D02*
X63933009Y-57355619D01*
X64416819Y-57597523D02*
X63400819Y-57597523D01*
X63400819Y-57210476D01*
X63449200Y-57113714D01*
X63497580Y-57065333D01*
X63594342Y-57016952D01*
X63739485Y-57016952D01*
X63836247Y-57065333D01*
X63884628Y-57113714D01*
X63933009Y-57210476D01*
X63933009Y-57597523D01*
X63400819Y-56388000D02*
X63400819Y-56194476D01*
X63449200Y-56097714D01*
X63545961Y-56000952D01*
X63739485Y-55952571D01*
X64078152Y-55952571D01*
X64271676Y-56000952D01*
X64368438Y-56097714D01*
X64416819Y-56194476D01*
X64416819Y-56388000D01*
X64368438Y-56484761D01*
X64271676Y-56581523D01*
X64078152Y-56629904D01*
X63739485Y-56629904D01*
X63545961Y-56581523D01*
X63449200Y-56484761D01*
X63400819Y-56388000D01*
X63400819Y-55517142D02*
X64223295Y-55517142D01*
X64320057Y-55468761D01*
X64368438Y-55420380D01*
X64416819Y-55323619D01*
X64416819Y-55130095D01*
X64368438Y-55033333D01*
X64320057Y-54984952D01*
X64223295Y-54936571D01*
X63400819Y-54936571D01*
X63400819Y-54597904D02*
X63400819Y-54017333D01*
X64416819Y-54307619D02*
X63400819Y-54307619D01*
G04 #@! TO.C,J2*
X57812819Y-61247866D02*
X58538533Y-61247866D01*
X58683676Y-61296247D01*
X58780438Y-61393009D01*
X58828819Y-61538152D01*
X58828819Y-61634914D01*
X57909580Y-60812438D02*
X57861200Y-60764057D01*
X57812819Y-60667295D01*
X57812819Y-60425390D01*
X57861200Y-60328628D01*
X57909580Y-60280247D01*
X58006342Y-60231866D01*
X58103104Y-60231866D01*
X58248247Y-60280247D01*
X58828819Y-60860819D01*
X58828819Y-60231866D01*
X64416819Y-62508190D02*
X63400819Y-62508190D01*
X63400819Y-62121142D01*
X63449200Y-62024380D01*
X63497580Y-61976000D01*
X63594342Y-61927619D01*
X63739485Y-61927619D01*
X63836247Y-61976000D01*
X63884628Y-62024380D01*
X63933009Y-62121142D01*
X63933009Y-62508190D01*
X64320057Y-60911619D02*
X64368438Y-60960000D01*
X64416819Y-61105142D01*
X64416819Y-61201904D01*
X64368438Y-61347047D01*
X64271676Y-61443809D01*
X64174914Y-61492190D01*
X63981390Y-61540571D01*
X63836247Y-61540571D01*
X63642723Y-61492190D01*
X63545961Y-61443809D01*
X63449200Y-61347047D01*
X63400819Y-61201904D01*
X63400819Y-61105142D01*
X63449200Y-60960000D01*
X63497580Y-60911619D01*
X64416819Y-60476190D02*
X63400819Y-60476190D01*
X64416819Y-59992380D02*
X63400819Y-59992380D01*
X64416819Y-59411809D01*
X63400819Y-59411809D01*
G04 #@! TO.C,J3*
X57863619Y-49868666D02*
X58589333Y-49868666D01*
X58734476Y-49917047D01*
X58831238Y-50013809D01*
X58879619Y-50158952D01*
X58879619Y-50255714D01*
X57863619Y-49481619D02*
X57863619Y-48852666D01*
X58250666Y-49191333D01*
X58250666Y-49046190D01*
X58299047Y-48949428D01*
X58347428Y-48901047D01*
X58444190Y-48852666D01*
X58686095Y-48852666D01*
X58782857Y-48901047D01*
X58831238Y-48949428D01*
X58879619Y-49046190D01*
X58879619Y-49336476D01*
X58831238Y-49433238D01*
X58782857Y-49481619D01*
X64416819Y-50040419D02*
X63933009Y-50379085D01*
X64416819Y-50620990D02*
X63400819Y-50620990D01*
X63400819Y-50233942D01*
X63449200Y-50137180D01*
X63497580Y-50088800D01*
X63594342Y-50040419D01*
X63739485Y-50040419D01*
X63836247Y-50088800D01*
X63884628Y-50137180D01*
X63933009Y-50233942D01*
X63933009Y-50620990D01*
X64416819Y-49604990D02*
X63400819Y-49604990D01*
X64416819Y-49121180D02*
X63400819Y-49121180D01*
X64416819Y-48540609D01*
X63400819Y-48540609D01*
G04 #@! TO.C,RV2*
X78735619Y-58262761D02*
X78251809Y-58601428D01*
X78735619Y-58843333D02*
X77719619Y-58843333D01*
X77719619Y-58456285D01*
X77768000Y-58359523D01*
X77816380Y-58311142D01*
X77913142Y-58262761D01*
X78058285Y-58262761D01*
X78155047Y-58311142D01*
X78203428Y-58359523D01*
X78251809Y-58456285D01*
X78251809Y-58843333D01*
X77719619Y-57972476D02*
X78735619Y-57633809D01*
X77719619Y-57295142D01*
X77816380Y-57004857D02*
X77768000Y-56956476D01*
X77719619Y-56859714D01*
X77719619Y-56617809D01*
X77768000Y-56521047D01*
X77816380Y-56472666D01*
X77913142Y-56424285D01*
X78009904Y-56424285D01*
X78155047Y-56472666D01*
X78735619Y-57053238D01*
X78735619Y-56424285D01*
X67979619Y-58407904D02*
X67979619Y-58891714D01*
X68463428Y-58940095D01*
X68415047Y-58891714D01*
X68366666Y-58794952D01*
X68366666Y-58553047D01*
X68415047Y-58456285D01*
X68463428Y-58407904D01*
X68560190Y-58359523D01*
X68802095Y-58359523D01*
X68898857Y-58407904D01*
X68947238Y-58456285D01*
X68995619Y-58553047D01*
X68995619Y-58794952D01*
X68947238Y-58891714D01*
X68898857Y-58940095D01*
X67979619Y-57730571D02*
X67979619Y-57633809D01*
X68028000Y-57537047D01*
X68076380Y-57488666D01*
X68173142Y-57440285D01*
X68366666Y-57391904D01*
X68608571Y-57391904D01*
X68802095Y-57440285D01*
X68898857Y-57488666D01*
X68947238Y-57537047D01*
X68995619Y-57633809D01*
X68995619Y-57730571D01*
X68947238Y-57827333D01*
X68898857Y-57875714D01*
X68802095Y-57924095D01*
X68608571Y-57972476D01*
X68366666Y-57972476D01*
X68173142Y-57924095D01*
X68076380Y-57875714D01*
X68028000Y-57827333D01*
X67979619Y-57730571D01*
X68995619Y-56956476D02*
X67979619Y-56956476D01*
X68995619Y-56375904D02*
X68415047Y-56811333D01*
X67979619Y-56375904D02*
X68560190Y-56956476D01*
G04 #@! TO.C,RV1*
X78735619Y-45562761D02*
X78251809Y-45901428D01*
X78735619Y-46143333D02*
X77719619Y-46143333D01*
X77719619Y-45756285D01*
X77768000Y-45659523D01*
X77816380Y-45611142D01*
X77913142Y-45562761D01*
X78058285Y-45562761D01*
X78155047Y-45611142D01*
X78203428Y-45659523D01*
X78251809Y-45756285D01*
X78251809Y-46143333D01*
X77719619Y-45272476D02*
X78735619Y-44933809D01*
X77719619Y-44595142D01*
X78735619Y-43724285D02*
X78735619Y-44304857D01*
X78735619Y-44014571D02*
X77719619Y-44014571D01*
X77864761Y-44111333D01*
X77961523Y-44208095D01*
X78009904Y-44304857D01*
X67979619Y-45707904D02*
X67979619Y-46191714D01*
X68463428Y-46240095D01*
X68415047Y-46191714D01*
X68366666Y-46094952D01*
X68366666Y-45853047D01*
X68415047Y-45756285D01*
X68463428Y-45707904D01*
X68560190Y-45659523D01*
X68802095Y-45659523D01*
X68898857Y-45707904D01*
X68947238Y-45756285D01*
X68995619Y-45853047D01*
X68995619Y-46094952D01*
X68947238Y-46191714D01*
X68898857Y-46240095D01*
X67979619Y-45030571D02*
X67979619Y-44933809D01*
X68028000Y-44837047D01*
X68076380Y-44788666D01*
X68173142Y-44740285D01*
X68366666Y-44691904D01*
X68608571Y-44691904D01*
X68802095Y-44740285D01*
X68898857Y-44788666D01*
X68947238Y-44837047D01*
X68995619Y-44933809D01*
X68995619Y-45030571D01*
X68947238Y-45127333D01*
X68898857Y-45175714D01*
X68802095Y-45224095D01*
X68608571Y-45272476D01*
X68366666Y-45272476D01*
X68173142Y-45224095D01*
X68076380Y-45175714D01*
X68028000Y-45127333D01*
X67979619Y-45030571D01*
X68995619Y-44256476D02*
X67979619Y-44256476D01*
X68995619Y-43675904D02*
X68415047Y-44111333D01*
X67979619Y-43675904D02*
X68560190Y-44256476D01*
G04 #@! TO.C,TR2*
X113017904Y-31193619D02*
X113598476Y-31193619D01*
X113308190Y-32209619D02*
X113308190Y-31193619D01*
X114517714Y-32209619D02*
X114179047Y-31725809D01*
X113937142Y-32209619D02*
X113937142Y-31193619D01*
X114324190Y-31193619D01*
X114420952Y-31242000D01*
X114469333Y-31290380D01*
X114517714Y-31387142D01*
X114517714Y-31532285D01*
X114469333Y-31629047D01*
X114420952Y-31677428D01*
X114324190Y-31725809D01*
X113937142Y-31725809D01*
X114904761Y-31290380D02*
X114953142Y-31242000D01*
X115049904Y-31193619D01*
X115291809Y-31193619D01*
X115388571Y-31242000D01*
X115436952Y-31290380D01*
X115485333Y-31387142D01*
X115485333Y-31483904D01*
X115436952Y-31629047D01*
X114856380Y-32209619D01*
X115485333Y-32209619D01*
G04 #@! TO.C,TR1*
X92596304Y-31396819D02*
X93176876Y-31396819D01*
X92886590Y-32412819D02*
X92886590Y-31396819D01*
X94096114Y-32412819D02*
X93757447Y-31929009D01*
X93515542Y-32412819D02*
X93515542Y-31396819D01*
X93902590Y-31396819D01*
X93999352Y-31445200D01*
X94047733Y-31493580D01*
X94096114Y-31590342D01*
X94096114Y-31735485D01*
X94047733Y-31832247D01*
X93999352Y-31880628D01*
X93902590Y-31929009D01*
X93515542Y-31929009D01*
X95063733Y-32412819D02*
X94483161Y-32412819D01*
X94773447Y-32412819D02*
X94773447Y-31396819D01*
X94676685Y-31541961D01*
X94579923Y-31638723D01*
X94483161Y-31687104D01*
G04 #@! TO.C,U2*
X82654019Y-72097295D02*
X83476495Y-72097295D01*
X83573257Y-72048914D01*
X83621638Y-72000533D01*
X83670019Y-71903771D01*
X83670019Y-71710247D01*
X83621638Y-71613485D01*
X83573257Y-71565104D01*
X83476495Y-71516723D01*
X82654019Y-71516723D01*
X82750780Y-71081295D02*
X82702400Y-71032914D01*
X82654019Y-70936152D01*
X82654019Y-70694247D01*
X82702400Y-70597485D01*
X82750780Y-70549104D01*
X82847542Y-70500723D01*
X82944304Y-70500723D01*
X83089447Y-70549104D01*
X83670019Y-71129676D01*
X83670019Y-70500723D01*
X71325619Y-74134133D02*
X71325619Y-74617942D01*
X70309619Y-74617942D01*
X71228857Y-73214895D02*
X71277238Y-73263276D01*
X71325619Y-73408419D01*
X71325619Y-73505180D01*
X71277238Y-73650323D01*
X71180476Y-73747085D01*
X71083714Y-73795466D01*
X70890190Y-73843847D01*
X70745047Y-73843847D01*
X70551523Y-73795466D01*
X70454761Y-73747085D01*
X70358000Y-73650323D01*
X70309619Y-73505180D01*
X70309619Y-73408419D01*
X70358000Y-73263276D01*
X70406380Y-73214895D01*
X71035333Y-72827847D02*
X71035333Y-72344038D01*
X71325619Y-72924609D02*
X70309619Y-72585942D01*
X71325619Y-72247276D01*
X70938571Y-71908609D02*
X70938571Y-71134514D01*
X71325619Y-70118514D02*
X71325619Y-70699085D01*
X71325619Y-70408800D02*
X70309619Y-70408800D01*
X70454761Y-70505561D01*
X70551523Y-70602323D01*
X70599904Y-70699085D01*
X71325619Y-69150895D02*
X71325619Y-69731466D01*
X71325619Y-69441180D02*
X70309619Y-69441180D01*
X70454761Y-69537942D01*
X70551523Y-69634704D01*
X70599904Y-69731466D01*
X70309619Y-68521942D02*
X70309619Y-68425180D01*
X70358000Y-68328419D01*
X70406380Y-68280038D01*
X70503142Y-68231657D01*
X70696666Y-68183276D01*
X70938571Y-68183276D01*
X71132095Y-68231657D01*
X71228857Y-68280038D01*
X71277238Y-68328419D01*
X71325619Y-68425180D01*
X71325619Y-68521942D01*
X71277238Y-68618704D01*
X71228857Y-68667085D01*
X71132095Y-68715466D01*
X70938571Y-68763847D01*
X70696666Y-68763847D01*
X70503142Y-68715466D01*
X70406380Y-68667085D01*
X70358000Y-68618704D01*
X70309619Y-68521942D01*
G04 #@! TD*
M02*
