M48
;DRILL file {KiCad (5.0.2)-1} date 4/12/2019 9:41:08 AM
;FORMAT={-:-/ absolute / inch / decimal}
FMAT,2
INCH,TZ
T1C0.0276
T2C0.0300
T3C0.0315
T4C0.0350
T5C0.0394
%
G90
G05
T1
X3.62Y-2.83
X3.92Y-2.83
T2
X3.5423Y-1.2523
X3.5423Y-1.7523
X3.8423Y-1.2523
X3.8423Y-1.7523
X4.3423Y-1.2523
X4.3423Y-1.7523
X4.6423Y-1.2523
X4.6423Y-1.7523
X3.55Y-2.25
X3.55Y-2.35
X3.55Y-2.45
X3.65Y-2.05
X3.65Y-2.25
X3.65Y-2.35
X3.65Y-2.45
X3.65Y-2.65
X3.75Y-2.05
X3.75Y-2.65
X3.85Y-2.05
X3.85Y-2.65
X3.95Y-2.05
X3.95Y-2.65
X4.05Y-2.05
X4.05Y-2.65
X4.15Y-2.05
X4.15Y-2.65
X4.25Y-2.05
X4.25Y-2.65
X4.35Y-2.05
X4.35Y-2.65
X4.45Y-2.05
X4.45Y-2.65
X4.55Y-2.05
X4.55Y-2.65
X4.65Y-2.05
X4.65Y-2.65
X4.75Y-2.05
X4.75Y-2.65
X4.85Y-2.05
X4.85Y-2.65
X4.95Y-2.05
X4.95Y-2.65
X5.05Y-2.05
X5.05Y-2.65
T3
X2.7931Y-2.45
X2.99Y-2.45
X2.79Y-1.95
X2.9869Y-1.95
T4
X2.935Y-2.65
X2.935Y-2.95
X3.035Y-2.65
X3.035Y-2.95
X3.135Y-2.65
X3.135Y-2.95
T5
X2.79Y-1.77
X2.89Y-1.77
X2.99Y-1.77
X2.4Y-1.65
X2.4Y-1.75
X2.79Y-2.27
X2.89Y-2.27
X2.99Y-2.27
X2.4Y-2.35
X2.4Y-2.45
X2.4Y-1.85
X2.4Y-1.95
X2.4Y-2.05
X2.4Y-2.15
X2.4Y-2.25
T0
M30
